{
  "accessors": [
    {
      "bufferView": 2,
      "componentType": 5126,
      "count": 65532,
      "max": [
        0.3576352596282959,
        2.2200000286102295,
        2.1377792358398438
      ],
      "min": [
        -2.138000965118408,
        -2.2200000286102295,
        -2.1377792358398438
      ],
      "type": "VEC3"
    },
    {
      "bufferView": 2,
      "byteOffset": 786384,
      "componentType": 5126,
      "count": 65532,
      "max": [
        1.0,
        1.0,
        1.0
      ],
      "min": [
        -1.0,
        -1.0,
        -1.0
      ],
      "type": "VEC3"
    },
    {
      "bufferView": 3,
      "componentType": 5126,
      "count": 65532,
      "max": [
        1.0,
        1.0,
        1.0,
        1.0
      ],
      "min": [
        -1.0,
        -1.0,
        -1.0,
        1.0
      ],
      "type": "VEC4"
    },
    {
      "bufferView": 1,
      "componentType": 5126,
      "count": 65532,
      "max": [
        0.0038759689778089523,
        0.5099999904632568
      ],
      "min": [
        0.0038759689778089523,
        0.5099999904632568
      ],
      "type": "VEC2"
    },
    {
      "bufferView": 1,
      "byteOffset": 524256,
      "componentType": 5126,
      "count": 65532,
      "max": [
        0.0038759689778089523,
        0.5099999904632568
      ],
      "min": [
        0.0038759689778089523,
        0.5099999904632568
      ],
      "type": "VEC2"
    },
    {
      "bufferView": 1,
      "byteOffset": 1048512,
      "componentType": 5126,
      "count": 65532,
      "max": [
        0.0038759689778089523,
        0.5099999904632568
      ],
      "min": [
        0.0038759689778089523,
        0.5099999904632568
      ],
      "type": "VEC2"
    },
    {
      "bufferView": 1,
      "byteOffset": 1572768,
      "componentType": 5126,
      "count": 65532,
      "max": [
        0.0038759689778089523,
        0.5099999904632568
      ],
      "min": [
        0.0038759689778089523,
        0.5099999904632568
      ],
      "type": "VEC2"
    },
    {
      "bufferView": 0,
      "componentType": 5125,
      "count": 316803,
      "type": "SCALAR"
    },
    {
      "bufferView": 2,
      "byteOffset": 1572768,
      "componentType": 5126,
      "count": 65532,
      "max": [
        0.3576352596282959,
        2.2200000286102295,
        2.119999885559082
      ],
      "min": [
        -2.1199951171875,
        -2.2200000286102295,
        -2.1199951171875
      ],
      "type": "VEC3"
    },
    {
      "bufferView": 2,
      "byteOffset": 2359152,
      "componentType": 5126,
      "count": 65532,
      "max": [
        1.0,
        1.0,
        1.0
      ],
      "min": [
        -1.0,
        -1.0,
        -1.0
      ],
      "type": "VEC3"
    },
    {
      "bufferView": 3,
      "byteOffset": 1048512,
      "componentType": 5126,
      "count": 65532,
      "max": [
        1.0,
        1.0,
        1.0,
        1.0
      ],
      "min": [
        -1.0,
        -1.0,
        -1.0,
        1.0
      ],
      "type": "VEC4"
    },
    {
      "bufferView": 1,
      "byteOffset": 2097024,
      "componentType": 5126,
      "count": 65532,
      "max": [
        0.0038759689778089523,
        0.5099999904632568
      ],
      "min": [
        0.0038759689778089523,
        0.5099999904632568
      ],
      "type": "VEC2"
    },
    {
      "bufferView": 1,
      "byteOffset": 2621280,
      "componentType": 5126,
      "count": 65532,
      "max": [
        0.0038759689778089523,
        0.5099999904632568
      ],
      "min": [
        0.0038759689778089523,
        0.5099999904632568
      ],
      "type": "VEC2"
    },
    {
      "bufferView": 1,
      "byteOffset": 3145536,
      "componentType": 5126,
      "count": 65532,
      "max": [
        0.0038759689778089523,
        0.5099999904632568
      ],
      "min": [
        0.0038759689778089523,
        0.5099999904632568
      ],
      "type": "VEC2"
    },
    {
      "bufferView": 1,
      "byteOffset": 3669792,
      "componentType": 5126,
      "count": 65532,
      "max": [
        0.0038759689778089523,
        0.5099999904632568
      ],
      "min": [
        0.0038759689778089523,
        0.5099999904632568
      ],
      "type": "VEC2"
    },
    {
      "bufferView": 0,
      "byteOffset": 1267212,
      "componentType": 5125,
      "count": 272532,
      "type": "SCALAR"
    },
    {
      "bufferView": 2,
      "byteOffset": 3145536,
      "componentType": 5126,
      "count": 59534,
      "max": [
        0.3576352596282959,
        2.2200000286102295,
        2.119999885559082
      ],
      "min": [
        -2.1138205528259277,
        -2.2200000286102295,
        -2.119999885559082
      ],
      "type": "VEC3"
    },
    {
      "bufferView": 2,
      "byteOffset": 3859944,
      "componentType": 5126,
      "count": 59534,
      "max": [
        1.0,
        1.0,
        1.0
      ],
      "min": [
        -1.0,
        -1.0,
        -1.0
      ],
      "type": "VEC3"
    },
    {
      "bufferView": 3,
      "byteOffset": 2097024,
      "componentType": 5126,
      "count": 59534,
      "max": [
        1.0,
        1.0,
        1.0,
        1.0
      ],
      "min": [
        -1.0,
        -1.0,
        -1.0,
        1.0
      ],
      "type": "VEC4"
    },
    {
      "bufferView": 1,
      "byteOffset": 4194048,
      "componentType": 5126,
      "count": 59534,
      "max": [
        0.0038759689778089523,
        0.5099999904632568
      ],
      "min": [
        0.0038759689778089523,
        0.5099999904632568
      ],
      "type": "VEC2"
    },
    {
      "bufferView": 1,
      "byteOffset": 4670320,
      "componentType": 5126,
      "count": 59534,
      "max": [
        0.0038759689778089523,
        0.5099999904632568
      ],
      "min": [
        0.0038759689778089523,
        0.5099999904632568
      ],
      "type": "VEC2"
    },
    {
      "bufferView": 1,
      "byteOffset": 5146592,
      "componentType": 5126,
      "count": 59534,
      "max": [
        0.0038759689778089523,
        0.5099999904632568
      ],
      "min": [
        0.0038759689778089523,
        0.5099999904632568
      ],
      "type": "VEC2"
    },
    {
      "bufferView": 1,
      "byteOffset": 5622864,
      "componentType": 5126,
      "count": 59534,
      "max": [
        0.0038759689778089523,
        0.5099999904632568
      ],
      "min": [
        0.0038759689778089523,
        0.5099999904632568
      ],
      "type": "VEC2"
    },
    {
      "bufferView": 0,
      "byteOffset": 2357340,
      "componentType": 5125,
      "count": 236259,
      "type": "SCALAR"
    },
    {
      "bufferView": 2,
      "byteOffset": 4574352,
      "componentType": 5126,
      "count": 65532,
      "max": [
        1.4105525016784668,
        1.35706627368927,
        1.7117372751235962
      ],
      "min": [
        -1.3648945093154907,
        -1.423850417137146,
        -1.8063000440597534
      ],
      "type": "VEC3"
    },
    {
      "bufferView": 2,
      "byteOffset": 5360736,
      "componentType": 5126,
      "count": 65532,
      "max": [
        1.0,
        1.0,
        1.0
      ],
      "min": [
        -1.0,
        -1.0,
        -1.0
      ],
      "type": "VEC3"
    },
    {
      "bufferView": 1,
      "byteOffset": 6099136,
      "componentType": 5126,
      "count": 65532,
      "max": [
        0.9961240291595459,
        0.5099999904632568
      ],
      "min": [
        0.005233099218457937,
        0.5099999904632568
      ],
      "type": "VEC2"
    },
    {
      "bufferView": 1,
      "byteOffset": 6623392,
      "componentType": 5126,
      "count": 65532,
      "max": [
        0.9961240291595459,
        0.5099999904632568
      ],
      "min": [
        0.005233099218457937,
        0.5099999904632568
      ],
      "type": "VEC2"
    },
    {
      "bufferView": 1,
      "byteOffset": 7147648,
      "componentType": 5126,
      "count": 65532,
      "max": [
        0.9961240291595459,
        0.5099999904632568
      ],
      "min": [
        0.005233099218457937,
        0.5099999904632568
      ],
      "type": "VEC2"
    },
    {
      "bufferView": 0,
      "byteOffset": 3302376,
      "componentType": 5125,
      "count": 323172,
      "type": "SCALAR"
    },
    {
      "bufferView": 2,
      "byteOffset": 6147120,
      "componentType": 5126,
      "count": 65532,
      "max": [
        1.1022083759307861,
        1.408794641494751,
        1.7116705179214478
      ],
      "min": [
        -1.3764421939849854,
        -1.4038523435592651,
        -1.8102706670761108
      ],
      "type": "VEC3"
    },
    {
      "bufferView": 2,
      "byteOffset": 6933504,
      "componentType": 5126,
      "count": 65532,
      "max": [
        1.0,
        1.0,
        1.0
      ],
      "min": [
        -1.0,
        -1.0,
        -1.0
      ],
      "type": "VEC3"
    },
    {
      "bufferView": 1,
      "byteOffset": 7671904,
      "componentType": 5126,
      "count": 65532,
      "max": [
        0.9961240291595459,
        0.5099999904632568
      ],
      "min": [
        0.005233773496001959,
        0.5099999904632568
      ],
      "type": "VEC2"
    },
    {
      "bufferView": 1,
      "byteOffset": 8196160,
      "componentType": 5126,
      "count": 65532,
      "max": [
        0.9961240291595459,
        0.5099999904632568
      ],
      "min": [
        0.005233773496001959,
        0.5099999904632568
      ],
      "type": "VEC2"
    },
    {
      "bufferView": 1,
      "byteOffset": 8720416,
      "componentType": 5126,
      "count": 65532,
      "max": [
        0.9961240291595459,
        0.5099999904632568
      ],
      "min": [
        0.005233773496001959,
        0.5099999904632568
      ],
      "type": "VEC2"
    },
    {
      "bufferView": 0,
      "byteOffset": 4595064,
      "componentType": 5125,
      "count": 293697,
      "type": "SCALAR"
    },
    {
      "bufferView": 2,
      "byteOffset": 7719888,
      "componentType": 5126,
      "count": 65532,
      "max": [
        0.8136720657348633,
        1.4241297245025635,
        1.7117761373519897
      ],
      "min": [
        -1.4100464582443237,
        -1.4242936372756958,
        -1.8102011680603027
      ],
      "type": "VEC3"
    },
    {
      "bufferView": 2,
      "byteOffset": 8506272,
      "componentType": 5126,
      "count": 65532,
      "max": [
        1.0,
        1.0,
        1.0
      ],
      "min": [
        -1.0,
        -1.0,
        -1.0
      ],
      "type": "VEC3"
    },
    {
      "bufferView": 1,
      "byteOffset": 9244672,
      "componentType": 5126,
      "count": 65532,
      "max": [
        0.9961240291595459,
        0.5099999904632568
      ],
      "min": [
        0.0052338032983243465,
        0.5099999904632568
      ],
      "type": "VEC2"
    },
    {
      "bufferView": 1,
      "byteOffset": 9768928,
      "componentType": 5126,
      "count": 65532,
      "max": [
        0.9961240291595459,
        0.5099999904632568
      ],
      "min": [
        0.0052338032983243465,
        0.5099999904632568
      ],
      "type": "VEC2"
    },
    {
      "bufferView": 1,
      "byteOffset": 10293184,
      "componentType": 5126,
      "count": 65532,
      "max": [
        0.9961240291595459,
        0.5099999904632568
      ],
      "min": [
        0.0052338032983243465,
        0.5099999904632568
      ],
      "type": "VEC2"
    },
    {
      "bufferView": 0,
      "byteOffset": 5769852,
      "componentType": 5125,
      "count": 280866,
      "type": "SCALAR"
    },
    {
      "bufferView": 2,
      "byteOffset": 9292656,
      "componentType": 5126,
      "count": 65532,
      "max": [
        0.27122411131858826,
        1.4241297245025635,
        1.71160888671875
      ],
      "min": [
        -1.4107537269592285,
        -1.3542344570159912,
        -1.809999942779541
      ],
      "type": "VEC3"
    },
    {
      "bufferView": 2,
      "byteOffset": 10079040,
      "componentType": 5126,
      "count": 65532,
      "max": [
        1.0,
        1.0,
        1.0
      ],
      "min": [
        -1.0,
        -1.0,
        -1.0
      ],
      "type": "VEC3"
    },
    {
      "bufferView": 1,
      "byteOffset": 10817440,
      "componentType": 5126,
      "count": 65532,
      "max": [
        0.9961240291595459,
        0.5099999904632568
      ],
      "min": [
        0.006092969328165054,
        0.5099999904632568
      ],
      "type": "VEC2"
    },
    {
      "bufferView": 1,
      "byteOffset": 11341696,
      "componentType": 5126,
      "count": 65532,
      "max": [
        0.9961240291595459,
        0.5099999904632568
      ],
      "min": [
        0.006092969328165054,
        0.5099999904632568
      ],
      "type": "VEC2"
    },
    {
      "bufferView": 1,
      "byteOffset": 11865952,
      "componentType": 5126,
      "count": 65532,
      "max": [
        0.9961240291595459,
        0.5099999904632568
      ],
      "min": [
        0.006092969328165054,
        0.5099999904632568
      ],
      "type": "VEC2"
    },
    {
      "bufferView": 0,
      "byteOffset": 6893316,
      "componentType": 5125,
      "count": 277746,
      "type": "SCALAR"
    },
    {
      "bufferView": 2,
      "byteOffset": 10865424,
      "componentType": 5126,
      "count": 30015,
      "max": [
        0.42126286029815674,
        1.4217817783355713,
        1.7117761373519897
      ],
      "min": [
        -0.5020530223846436,
        -1.4237972497940063,
        -1.809999942779541
      ],
      "type": "VEC3"
    },
    {
      "bufferView": 2,
      "byteOffset": 11225604,
      "componentType": 5126,
      "count": 30015,
      "max": [
        1.0,
        1.0,
        1.0
      ],
      "min": [
        -1.0,
        -1.0,
        -1.0
      ],
      "type": "VEC3"
    },
    {
      "bufferView": 1,
      "byteOffset": 12390208,
      "componentType": 5126,
      "count": 30015,
      "max": [
        0.9961240291595459,
        0.5099999904632568
      ],
      "min": [
        0.005233785603195429,
        0.5099999904632568
      ],
      "type": "VEC2"
    },
    {
      "bufferView": 1,
      "byteOffset": 12630328,
      "componentType": 5126,
      "count": 30015,
      "max": [
        0.9961240291595459,
        0.5099999904632568
      ],
      "min": [
        0.005233785603195429,
        0.5099999904632568
      ],
      "type": "VEC2"
    },
    {
      "bufferView": 1,
      "byteOffset": 12870448,
      "componentType": 5126,
      "count": 30015,
      "max": [
        0.9961240291595459,
        0.5099999904632568
      ],
      "min": [
        0.005233785603195429,
        0.5099999904632568
      ],
      "type": "VEC2"
    },
    {
      "bufferView": 0,
      "byteOffset": 8004300,
      "componentType": 5125,
      "count": 97083,
      "type": "SCALAR"
    }
  ],
  "asset": {
    "extras": {
      "author": "Nitesh Bhatia (https://sketchfab.com/niteshbhatia008)",
      "license": "CC-BY-4.0 (http://creativecommons.org/licenses/by/4.0/)",
      "source": "https://sketchfab.com/3d-models/mast-u-with-plasma-8f4983d671a8455b94c84639a6c32d40",
      "title": "MAST-U with Plasma"
    },
    "generator": "Sketchfab-15.27.0",
    "version": "2.0"
  },
  "bufferViews": [
    {
      "buffer": 0,
      "byteLength": 8392632,
      "name": "floatBufferViews",
      "target": 34963
    },
    {
      "buffer": 0,
      "byteLength": 13110568,
      "byteOffset": 8392632,
      "byteStride": 8,
      "name": "floatBufferViews",
      "target": 34962
    },
    {
      "buffer": 0,
      "byteLength": 11585784,
      "byteOffset": 21503200,
      "byteStride": 12,
      "name": "floatBufferViews",
      "target": 34962
    },
    {
      "buffer": 0,
      "byteLength": 3049568,
      "byteOffset": 33088984,
      "byteStride": 16,
      "name": "floatBufferViews",
      "target": 34962
    }
  ],
  "buffers": [
    {
      "byteLength": 36138552,
      "uri": "scene.bin"
    }
  ],
  "extensionsUsed": [
    "KHR_materials_emissive_strength"
  ],
  "images": [
    {
      "uri": "textures/Metal_baseColor.jpeg"
    },
    {
      "uri": "textures/Metal_metallicRoughness.png"
    },
    {
      "uri": "textures/Metal_normal.jpeg"
    },
    {
      "uri": "textures/material_1_baseColor.png"
    }
  ],
  "materials": [
    {
      "doubleSided": true,
      "name": "Metal",
      "normalTexture": {
        "index": 2,
        "texCoord": 2
      },
      "pbrMetallicRoughness": {
        "baseColorTexture": {
          "index": 0
        },
        "metallicRoughnessTexture": {
          "index": 1,
          "texCoord": 1
        }
      }
    },
    {
      "alphaMode": "BLEND",
      "emissiveFactor": [
        1.0,
        1.0,
        1.0
      ],
      "extensions": {
        "KHR_materials_emissive_strength": {
          "emissiveStrength": 1.5085760261364607
        }
      },
      "name": "material_1",
      "pbrMetallicRoughness": {
        "baseColorTexture": {
          "index": 3
        },
        "metallicFactor": 0.0
      }
    }
  ],
  "meshes": [
    {
      "name": "mesh0_4",
      "primitives": [
        {
          "attributes": {
            "NORMAL": 1,
            "POSITION": 0,
            "TANGENT": 2,
            "TEXCOORD_0": 3,
            "TEXCOORD_1": 4,
            "TEXCOORD_2": 5,
            "TEXCOORD_3": 6
          },
          "indices": 7,
          "material": 0,
          "mode": 4
        }
      ]
    },
    {
      "name": "mesh0_4",
      "primitives": [
        {
          "attributes": {
            "NORMAL": 9,
            "POSITION": 8,
            "TANGENT": 10,
            "TEXCOORD_0": 11,
            "TEXCOORD_1": 12,
            "TEXCOORD_2": 13,
            "TEXCOORD_3": 14
          },
          "indices": 15,
          "material": 0,
          "mode": 4
        }
      ]
    },
    {
      "name": "mesh0_4",
      "primitives": [
        {
          "attributes": {
            "NORMAL": 17,
            "POSITION": 16,
            "TANGENT": 18,
            "TEXCOORD_0": 19,
            "TEXCOORD_1": 20,
            "TEXCOORD_2": 21,
            "TEXCOORD_3": 22
          },
          "indices": 23,
          "material": 0,
          "mode": 4
        }
      ]
    },
    {
      "name": "mesh0_5",
      "primitives": [
        {
          "attributes": {
            "NORMAL": 25,
            "POSITION": 24,
            "TEXCOORD_0": 26,
            "TEXCOORD_1": 27,
            "TEXCOORD_2": 28
          },
          "indices": 29,
          "material": 1,
          "mode": 4
        }
      ]
    },
    {
      "name": "mesh0_5",
      "primitives": [
        {
          "attributes": {
            "NORMAL": 31,
            "POSITION": 30,
            "TEXCOORD_0": 32,
            "TEXCOORD_1": 33,
            "TEXCOORD_2": 34
          },
          "indices": 35,
          "material": 1,
          "mode": 4
        }
      ]
    },
    {
      "name": "mesh0_5",
      "primitives": [
        {
          "attributes": {
            "NORMAL": 37,
            "POSITION": 36,
            "TEXCOORD_0": 38,
            "TEXCOORD_1": 39,
            "TEXCOORD_2": 40
          },
          "indices": 41,
          "material": 1,
          "mode": 4
        }
      ]
    },
    {
      "name": "mesh0_5",
      "primitives": [
        {
          "attributes": {
            "NORMAL": 43,
            "POSITION": 42,
            "TEXCOORD_0": 44,
            "TEXCOORD_1": 45,
            "TEXCOORD_2": 46
          },
          "indices": 47,
          "material": 1,
          "mode": 4
        }
      ]
    },
    {
      "name": "mesh0_5",
      "primitives": [
        {
          "attributes": {
            "NORMAL": 49,
            "POSITION": 48,
            "TEXCOORD_0": 50,
            "TEXCOORD_1": 51,
            "TEXCOORD_2": 52
          },
          "indices": 53,
          "material": 1,
          "mode": 4
        }
      ]
    }
  ],
  "nodes": [
    {
      "children": [
        1
      ],
      "matrix": [
        -0.0013151266612112522,
        0.0014101724373174473,
        0.999998152256012,
        0.0,
        0.9999991059303284,
        -1.6021183753171966e-16,
        0.0013151280581951141,
        0.0,
        1.8545572402217658e-06,
        0.9999989867210388,
        -0.001410171273164229,
        0.0,
        0.0,
        0.0,
        0.0,
        1.0
      ],
      "name": "Sketchfab_model"
    },
    {
      "children": [
        2
      ],
      "matrix": [
        1.0,
        0.0,
        0.0,
        0.0,
        0.0,
        2.220446049250313e-16,
        1.0,
        0.0,
        0.0,
        -1.0,
        2.220446049250313e-16,
        0.0,
        0.0,
        0.0,
        0.0,
        1.0
      ],
      "name": "USDRoot"
    },
    {
      "children": [
        3
      ],
      "name": "Mastu"
    },
    {
      "children": [
        4,
        9
      ],
      "name": "Geom"
    },
    {
      "children": [
        5
      ],
      "matrix": [
        0.098371721804142,
        0.0,
        0.0,
        0.0,
        0.0,
        0.098371721804142,
        0.0,
        0.0,
        0.0,
        0.0,
        0.098371721804142,
        0.0,
        0.034443844109773636,
        0.2183852195739746,
        0.0,
        1.0
      ],
      "name": "reactor"
    },
    {
      "children": [
        6,
        7,
        8
      ],
      "name": "Renderer_Node"
    },
    {
      "mesh": 0,
      "name": "mesh0_4"
    },
    {
      "mesh": 1,
      "name": "mesh0_4"
    },
    {
      "mesh": 2,
      "name": "mesh0_4"
    },
    {
      "children": [
        10
      ],
      "matrix": [
        0.09924479573965073,
        -8.676258822504224e-09,
        -8.676259710682643e-09,
        0.0,
        -8.676259710682643e-09,
        1.3334418902388734e-08,
        -0.09924480319023132,
        0.0,
        8.676260598861063e-09,
        0.09924480319023132,
        1.3334418014210314e-08,
        0.0,
        0.03588498383760452,
        0.22127270698547363,
        -8.130074093060102e-06,
        1.0
      ],
      "name": "plasma"
    },
    {
      "children": [
        11,
        12,
        13,
        14,
        15
      ],
      "name": "Renderer_Node_5"
    },
    {
      "mesh": 3,
      "name": "mesh0_5"
    },
    {
      "mesh": 4,
      "name": "mesh0_5"
    },
    {
      "mesh": 5,
      "name": "mesh0_5"
    },
    {
      "mesh": 6,
      "name": "mesh0_5"
    },
    {
      "mesh": 7,
      "name": "mesh0_5"
    }
  ],
  "samplers": [
    {
      "magFilter": 9729,
      "minFilter": 9987,
      "wrapS": 10497,
      "wrapT": 10497
    }
  ],
  "scene": 0,
  "scenes": [
    {
      "name": "Sketchfab_Scene",
      "nodes": [
        0
      ]
    }
  ],
  "textures": [
    {
      "sampler": 0,
      "source": 0
    },
    {
      "sampler": 0,
      "source": 1
    },
    {
      "sampler": 0,
      "source": 2
    },
    {
      "sampler": 0,
      "source": 3
    }
  ]
}
